<mxfile host="app.diagrams.net" modified="2020-12-30T15:23:53.821Z" agent="5.0 (Macintosh; Intel Mac OS X 10_15_6) AppleWebKit/605.1.15 (KHTML, like Gecko) Version/14.0.2 Safari/605.1.15" etag="d2--zQNcbElhdgayCgP5" version="14.1.2" type="github">
  <diagram id="4j_4sENDe654t2IUAPT0" name="Page-1">
    <mxGraphModel dx="2010" dy="600" grid="1" gridSize="10" guides="1" tooltips="1" connect="1" arrows="1" fold="1" page="1" pageScale="1" pageWidth="827" pageHeight="1169" math="0" shadow="0">
      <root>
        <mxCell id="0" />
        <mxCell id="1" parent="0" />
        <mxCell id="mEqfDXpkV24xWXZ3q9tl-109" value="" style="rounded=0;orthogonalLoop=1;jettySize=auto;html=1;entryX=0.439;entryY=0.993;entryDx=0;entryDy=0;entryPerimeter=0;" parent="1" source="mEqfDXpkV24xWXZ3q9tl-107" target="mEqfDXpkV24xWXZ3q9tl-101" edge="1">
          <mxGeometry relative="1" as="geometry" />
        </mxCell>
        <mxCell id="mEqfDXpkV24xWXZ3q9tl-107" value="" style="rounded=0;whiteSpace=wrap;html=1;shadow=0;strokeColor=#FF9933;fillColor=#FFFFFF;" parent="1" vertex="1">
          <mxGeometry x="-750" y="1450" width="520" height="200" as="geometry" />
        </mxCell>
        <mxCell id="mEqfDXpkV24xWXZ3q9tl-11" value="" style="edgeStyle=orthogonalEdgeStyle;rounded=0;orthogonalLoop=1;jettySize=auto;html=1;" parent="1" target="mEqfDXpkV24xWXZ3q9tl-10" edge="1">
          <mxGeometry relative="1" as="geometry">
            <mxPoint x="325" y="209" as="sourcePoint" />
          </mxGeometry>
        </mxCell>
        <mxCell id="mEqfDXpkV24xWXZ3q9tl-26" style="edgeStyle=none;rounded=0;orthogonalLoop=1;jettySize=auto;html=1;entryX=0.5;entryY=0;entryDx=0;entryDy=0;" parent="1" source="mEqfDXpkV24xWXZ3q9tl-4" target="mEqfDXpkV24xWXZ3q9tl-10" edge="1">
          <mxGeometry relative="1" as="geometry">
            <mxPoint x="335" y="190" as="targetPoint" />
          </mxGeometry>
        </mxCell>
        <mxCell id="mEqfDXpkV24xWXZ3q9tl-45" value="&lt;span style=&quot;color: rgb(77 , 77 , 77) ; font-family: &amp;#34;microsoft yahei&amp;#34; ; font-size: 12px ; text-align: left&quot;&gt;invokeAwareMethods调用bean自省的三个方法（如果该bean实现BeanNameAware接口、BeanClassLoaderAware接口、BeanFactoryAware接口）&lt;/span&gt;" style="edgeLabel;html=1;align=center;verticalAlign=middle;resizable=0;points=[];" parent="mEqfDXpkV24xWXZ3q9tl-26" vertex="1" connectable="0">
          <mxGeometry x="-0.22" relative="1" as="geometry">
            <mxPoint as="offset" />
          </mxGeometry>
        </mxCell>
        <mxCell id="mEqfDXpkV24xWXZ3q9tl-27" value="" style="edgeStyle=none;rounded=0;orthogonalLoop=1;jettySize=auto;html=1;" parent="1" source="mEqfDXpkV24xWXZ3q9tl-4" target="mEqfDXpkV24xWXZ3q9tl-7" edge="1">
          <mxGeometry relative="1" as="geometry" />
        </mxCell>
        <mxCell id="mEqfDXpkV24xWXZ3q9tl-4" value="&lt;pre style=&quot;font-family: &amp;#34;jetbrains mono&amp;#34; , monospace ; font-size: 11.3pt&quot;&gt;&lt;span style=&quot;background-color: rgb(255 , 255 , 255)&quot;&gt;initializeBean(beanName, exposedObject, mbd)&lt;/span&gt;&lt;/pre&gt;" style="rounded=1;whiteSpace=wrap;html=1;" parent="1" vertex="1">
          <mxGeometry x="70" y="50" width="530" height="50" as="geometry" />
        </mxCell>
        <mxCell id="mEqfDXpkV24xWXZ3q9tl-2" value="&lt;font style=&quot;vertical-align: inherit&quot;&gt;&lt;font style=&quot;vertical-align: inherit&quot;&gt;aop流程开始&lt;/font&gt;&lt;/font&gt;" style="text;html=1;strokeColor=none;fillColor=none;align=center;verticalAlign=middle;whiteSpace=wrap;rounded=0;" parent="1" vertex="1">
          <mxGeometry x="80" y="50" width="100" height="20" as="geometry" />
        </mxCell>
        <mxCell id="mEqfDXpkV24xWXZ3q9tl-7" value="&lt;h1&gt;调用Aop代码织入的入口&lt;/h1&gt;&lt;p&gt;&lt;span style=&quot;background-color: rgb(204 , 204 , 0)&quot;&gt;调用initializaBean接口，使用三个入参的接口，此接口是一个重载接口，三个参数分别为：&lt;span&gt;beanName，暴露的对象，mbd(&lt;/span&gt;&lt;span style=&quot;font-family: &amp;#34;jetbrains mono&amp;#34; , monospace ; font-size: 11.3pt&quot;&gt;RootBeanDefinition:定义的bean)&lt;/span&gt;&lt;/span&gt;&lt;/p&gt;" style="text;html=1;strokeColor=#000000;fillColor=none;spacing=5;spacingTop=-20;whiteSpace=wrap;overflow=hidden;rounded=0;shadow=0;" parent="1" vertex="1">
          <mxGeometry x="640" y="30" width="350" height="100" as="geometry" />
        </mxCell>
        <mxCell id="mEqfDXpkV24xWXZ3q9tl-49" value="&lt;span style=&quot;font-size: 12px ; background-color: rgb(248 , 249 , 250)&quot;&gt;前置处理器，bean初始化前执行某些特定的方法&lt;/span&gt;" style="edgeStyle=none;rounded=0;orthogonalLoop=1;jettySize=auto;html=1;" parent="1" source="mEqfDXpkV24xWXZ3q9tl-10" target="mEqfDXpkV24xWXZ3q9tl-13" edge="1">
          <mxGeometry x="-0.1304" y="15" relative="1" as="geometry">
            <mxPoint as="offset" />
          </mxGeometry>
        </mxCell>
        <mxCell id="mEqfDXpkV24xWXZ3q9tl-10" value="&lt;pre style=&quot;font-family: &amp;#34;jetbrains mono&amp;#34; , monospace ; font-size: 11.3pt&quot;&gt;&lt;span style=&quot;background-color: rgb(255 , 255 , 255)&quot;&gt;invokeAwareMethods&lt;/span&gt;&lt;/pre&gt;" style="whiteSpace=wrap;html=1;rounded=1;" parent="1" vertex="1">
          <mxGeometry x="160" y="200" width="350" height="40" as="geometry" />
        </mxCell>
        <mxCell id="mEqfDXpkV24xWXZ3q9tl-19" value="" style="edgeStyle=orthogonalEdgeStyle;rounded=0;orthogonalLoop=1;jettySize=auto;html=1;" parent="1" target="mEqfDXpkV24xWXZ3q9tl-18" edge="1">
          <mxGeometry relative="1" as="geometry">
            <mxPoint x="335" y="340" as="sourcePoint" />
          </mxGeometry>
        </mxCell>
        <mxCell id="mEqfDXpkV24xWXZ3q9tl-13" value="&lt;pre style=&quot;font-family: &amp;#34;jetbrains mono&amp;#34; , monospace ; font-size: 11.3pt&quot;&gt;&lt;span style=&quot;background-color: rgb(255 , 255 , 255)&quot;&gt;applyBeanPostProcessorsBeforeInitialization&lt;/span&gt;&lt;/pre&gt;" style="whiteSpace=wrap;html=1;rounded=1;" parent="1" vertex="1">
          <mxGeometry x="75" y="309" width="520" height="30" as="geometry" />
        </mxCell>
        <mxCell id="mEqfDXpkV24xWXZ3q9tl-33" value="" style="edgeStyle=none;rounded=0;orthogonalLoop=1;jettySize=auto;html=1;" parent="1" source="mEqfDXpkV24xWXZ3q9tl-18" target="mEqfDXpkV24xWXZ3q9tl-32" edge="1">
          <mxGeometry relative="1" as="geometry" />
        </mxCell>
        <mxCell id="mEqfDXpkV24xWXZ3q9tl-53" value="后置处理器，切面真正开始工作的位置" style="edgeStyle=none;rounded=0;orthogonalLoop=1;jettySize=auto;html=1;" parent="1" source="mEqfDXpkV24xWXZ3q9tl-18" target="mEqfDXpkV24xWXZ3q9tl-52" edge="1">
          <mxGeometry relative="1" as="geometry" />
        </mxCell>
        <mxCell id="mEqfDXpkV24xWXZ3q9tl-18" value="&lt;pre style=&quot;font-family: &amp;#34;jetbrains mono&amp;#34; , monospace ; font-size: 11.3pt&quot;&gt;&lt;span style=&quot;background-color: rgb(255 , 255 , 255)&quot;&gt;invokeInitMethods&lt;/span&gt;&lt;/pre&gt;" style="whiteSpace=wrap;html=1;rounded=1;" parent="1" vertex="1">
          <mxGeometry x="140" y="405" width="390" height="35" as="geometry" />
        </mxCell>
        <mxCell id="mEqfDXpkV24xWXZ3q9tl-28" value="调用初始化方法，" style="text;html=1;strokeColor=none;fillColor=none;align=center;verticalAlign=middle;whiteSpace=wrap;rounded=0;" parent="1" vertex="1">
          <mxGeometry x="187.5" y="360" width="265" height="20" as="geometry" />
        </mxCell>
        <mxCell id="mEqfDXpkV24xWXZ3q9tl-39" value="是" style="edgeStyle=none;rounded=0;orthogonalLoop=1;jettySize=auto;html=1;" parent="1" source="mEqfDXpkV24xWXZ3q9tl-32" target="mEqfDXpkV24xWXZ3q9tl-36" edge="1">
          <mxGeometry relative="1" as="geometry" />
        </mxCell>
        <mxCell id="mEqfDXpkV24xWXZ3q9tl-32" value="是否实现&lt;span style=&quot;font-family: &amp;#34;jetbrains mono&amp;#34; , monospace ; font-size: 11.3pt ; background-color: rgb(255 , 255 , 255)&quot;&gt;InitializingBean接口&lt;/span&gt;" style="rhombus;whiteSpace=wrap;html=1;rounded=1;" parent="1" vertex="1">
          <mxGeometry x="600" y="366.25" width="150" height="112.5" as="geometry" />
        </mxCell>
        <mxCell id="mEqfDXpkV24xWXZ3q9tl-42" value="" style="edgeStyle=none;rounded=0;orthogonalLoop=1;jettySize=auto;html=1;" parent="1" source="mEqfDXpkV24xWXZ3q9tl-36" target="mEqfDXpkV24xWXZ3q9tl-41" edge="1">
          <mxGeometry relative="1" as="geometry" />
        </mxCell>
        <mxCell id="mEqfDXpkV24xWXZ3q9tl-44" value="调用自定义初始化方法" style="edgeLabel;html=1;align=center;verticalAlign=middle;resizable=0;points=[];" parent="mEqfDXpkV24xWXZ3q9tl-42" vertex="1" connectable="0">
          <mxGeometry x="-0.3543" y="-1" relative="1" as="geometry">
            <mxPoint as="offset" />
          </mxGeometry>
        </mxCell>
        <mxCell id="mEqfDXpkV24xWXZ3q9tl-36" value="&lt;pre style=&quot;font-family: &amp;#34;jetbrains mono&amp;#34; , monospace ; font-size: 11.3pt&quot;&gt;&lt;span style=&quot;background-color: rgb(255 , 255 , 255)&quot;&gt;afterPropertiesSet&lt;/span&gt;&lt;/pre&gt;" style="whiteSpace=wrap;html=1;rounded=1;" parent="1" vertex="1">
          <mxGeometry x="845" y="410" width="205" height="30" as="geometry" />
        </mxCell>
        <mxCell id="mEqfDXpkV24xWXZ3q9tl-41" value="&lt;pre style=&quot;font-family: &amp;#34;jetbrains mono&amp;#34; , monospace ; font-size: 11.3pt&quot;&gt;&lt;span style=&quot;background-color: rgb(255 , 255 , 255)&quot;&gt;invokeCustomInitMethod&lt;/span&gt;&lt;/pre&gt;" style="whiteSpace=wrap;html=1;rounded=1;" parent="1" vertex="1">
          <mxGeometry x="794" y="505" width="310" height="35" as="geometry" />
        </mxCell>
        <mxCell id="mEqfDXpkV24xWXZ3q9tl-55" value="" style="edgeStyle=none;rounded=0;orthogonalLoop=1;jettySize=auto;html=1;" parent="1" source="mEqfDXpkV24xWXZ3q9tl-52" target="mEqfDXpkV24xWXZ3q9tl-54" edge="1">
          <mxGeometry relative="1" as="geometry" />
        </mxCell>
        <mxCell id="mEqfDXpkV24xWXZ3q9tl-56" value="获取所有的后置处理器" style="edgeLabel;html=1;align=center;verticalAlign=middle;resizable=0;points=[];" parent="mEqfDXpkV24xWXZ3q9tl-55" vertex="1" connectable="0">
          <mxGeometry x="-0.3231" relative="1" as="geometry">
            <mxPoint y="8" as="offset" />
          </mxGeometry>
        </mxCell>
        <mxCell id="mEqfDXpkV24xWXZ3q9tl-52" value="&lt;pre style=&quot;font-family: &amp;#34;jetbrains mono&amp;#34; , monospace ; font-size: 11.3pt&quot;&gt;&lt;span style=&quot;background-color: rgb(255 , 255 , 255)&quot;&gt;applyBeanPostProcessorsAfterInitialization&lt;/span&gt;&lt;/pre&gt;" style="whiteSpace=wrap;html=1;rounded=1;" parent="1" vertex="1">
          <mxGeometry x="107.5" y="540" width="455" height="30" as="geometry" />
        </mxCell>
        <mxCell id="mEqfDXpkV24xWXZ3q9tl-58" value="c初始化每一个后置处理器，此处使用循环对每个后置处理器进行处理" style="edgeStyle=none;rounded=0;orthogonalLoop=1;jettySize=auto;html=1;" parent="1" source="mEqfDXpkV24xWXZ3q9tl-54" target="mEqfDXpkV24xWXZ3q9tl-57" edge="1">
          <mxGeometry relative="1" as="geometry" />
        </mxCell>
        <mxCell id="mEqfDXpkV24xWXZ3q9tl-54" value="&lt;pre style=&quot;font-family: &amp;#34;jetbrains mono&amp;#34; , monospace ; font-size: 11.3pt&quot;&gt;&lt;pre style=&quot;font-family: &amp;#34;jetbrains mono&amp;#34; , monospace ; font-size: 11.3pt&quot;&gt;&lt;span style=&quot;background-color: rgb(255 , 255 , 255)&quot;&gt;getBeanPostProcessors&lt;/span&gt;&lt;/pre&gt;&lt;/pre&gt;" style="whiteSpace=wrap;html=1;rounded=1;" parent="1" vertex="1">
          <mxGeometry x="140" y="635" width="390" height="35" as="geometry" />
        </mxCell>
        <mxCell id="mEqfDXpkV24xWXZ3q9tl-63" value="" style="edgeStyle=none;rounded=0;orthogonalLoop=1;jettySize=auto;html=1;" parent="1" source="mEqfDXpkV24xWXZ3q9tl-57" target="mEqfDXpkV24xWXZ3q9tl-61" edge="1">
          <mxGeometry relative="1" as="geometry" />
        </mxCell>
        <mxCell id="mEqfDXpkV24xWXZ3q9tl-57" value="&lt;pre style=&quot;font-family: &amp;#34;jetbrains mono&amp;#34; , monospace ; font-size: 11.3pt&quot;&gt;&lt;span style=&quot;background-color: rgb(255 , 255 , 255)&quot;&gt;postProcessAfterInitialization&lt;/span&gt;&lt;/pre&gt;" style="whiteSpace=wrap;html=1;rounded=1;" parent="1" vertex="1">
          <mxGeometry x="140" y="730" width="390" height="35" as="geometry" />
        </mxCell>
        <mxCell id="mEqfDXpkV24xWXZ3q9tl-66" value="获取所有的需要动态代理的通知bean" style="edgeStyle=none;rounded=0;orthogonalLoop=1;jettySize=auto;html=1;" parent="1" source="mEqfDXpkV24xWXZ3q9tl-59" target="mEqfDXpkV24xWXZ3q9tl-65" edge="1">
          <mxGeometry relative="1" as="geometry" />
        </mxCell>
        <mxCell id="mEqfDXpkV24xWXZ3q9tl-59" value="&lt;pre style=&quot;font-family: &amp;#34;jetbrains mono&amp;#34; , monospace ; font-size: 11.3pt&quot;&gt;&lt;span style=&quot;background-color: rgb(255 , 255 , 255)&quot;&gt;wrapIfNecessary&lt;/span&gt;&lt;/pre&gt;" style="whiteSpace=wrap;html=1;rounded=1;" parent="1" vertex="1">
          <mxGeometry x="187.5" y="970" width="295" height="27.5" as="geometry" />
        </mxCell>
        <mxCell id="mEqfDXpkV24xWXZ3q9tl-64" value="是" style="edgeStyle=none;rounded=0;orthogonalLoop=1;jettySize=auto;html=1;" parent="1" source="mEqfDXpkV24xWXZ3q9tl-61" target="mEqfDXpkV24xWXZ3q9tl-59" edge="1">
          <mxGeometry relative="1" as="geometry" />
        </mxCell>
        <mxCell id="mEqfDXpkV24xWXZ3q9tl-78" style="edgeStyle=orthogonalEdgeStyle;rounded=0;orthogonalLoop=1;jettySize=auto;html=1;entryX=1;entryY=0.5;entryDx=0;entryDy=0;exitX=1;exitY=0.5;exitDx=0;exitDy=0;" parent="1" source="mEqfDXpkV24xWXZ3q9tl-61" target="mEqfDXpkV24xWXZ3q9tl-76" edge="1">
          <mxGeometry relative="1" as="geometry">
            <Array as="points">
              <mxPoint x="570" y="867" />
              <mxPoint x="570" y="1800" />
            </Array>
          </mxGeometry>
        </mxCell>
        <mxCell id="mEqfDXpkV24xWXZ3q9tl-79" value="否" style="edgeLabel;html=1;align=center;verticalAlign=middle;resizable=0;points=[];" parent="mEqfDXpkV24xWXZ3q9tl-78" vertex="1" connectable="0">
          <mxGeometry x="-0.0813" y="-2" relative="1" as="geometry">
            <mxPoint as="offset" />
          </mxGeometry>
        </mxCell>
        <mxCell id="mEqfDXpkV24xWXZ3q9tl-61" value="是不是被子类&lt;br&gt;标示为动态代理bean" style="rhombus;whiteSpace=wrap;html=1;shadow=0;strokeColor=#000000;fillColor=#FFFFFF;" parent="1" vertex="1">
          <mxGeometry x="240" y="810" width="190" height="114" as="geometry" />
        </mxCell>
        <mxCell id="mEqfDXpkV24xWXZ3q9tl-75" value="" style="edgeStyle=none;rounded=0;orthogonalLoop=1;jettySize=auto;html=1;" parent="1" source="mEqfDXpkV24xWXZ3q9tl-65" target="mEqfDXpkV24xWXZ3q9tl-74" edge="1">
          <mxGeometry relative="1" as="geometry" />
        </mxCell>
        <mxCell id="mEqfDXpkV24xWXZ3q9tl-65" value="&lt;pre style=&quot;font-family: &amp;#34;jetbrains mono&amp;#34; , monospace ; font-size: 11.3pt&quot;&gt;&lt;span style=&quot;background-color: rgb(255 , 255 , 255)&quot;&gt;getAdvicesAndAdvisorsForBean&lt;/span&gt;&lt;/pre&gt;" style="whiteSpace=wrap;html=1;rounded=1;" parent="1" vertex="1">
          <mxGeometry x="132.5" y="1061.25" width="405" height="28.75" as="geometry" />
        </mxCell>
        <mxCell id="mEqfDXpkV24xWXZ3q9tl-77" value="否" style="edgeStyle=none;rounded=0;orthogonalLoop=1;jettySize=auto;html=1;" parent="1" source="mEqfDXpkV24xWXZ3q9tl-74" target="mEqfDXpkV24xWXZ3q9tl-76" edge="1">
          <mxGeometry relative="1" as="geometry" />
        </mxCell>
        <mxCell id="mEqfDXpkV24xWXZ3q9tl-83" value="" style="edgeStyle=orthogonalEdgeStyle;rounded=0;orthogonalLoop=1;jettySize=auto;html=1;" parent="1" source="mEqfDXpkV24xWXZ3q9tl-74" target="mEqfDXpkV24xWXZ3q9tl-82" edge="1">
          <mxGeometry relative="1" as="geometry" />
        </mxCell>
        <mxCell id="mEqfDXpkV24xWXZ3q9tl-84" value="是" style="edgeLabel;html=1;align=center;verticalAlign=middle;resizable=0;points=[];" parent="mEqfDXpkV24xWXZ3q9tl-83" vertex="1" connectable="0">
          <mxGeometry x="-0.1528" y="-1" relative="1" as="geometry">
            <mxPoint as="offset" />
          </mxGeometry>
        </mxCell>
        <mxCell id="mEqfDXpkV24xWXZ3q9tl-74" value="&lt;span&gt;是否存在代理的通知&lt;/span&gt;" style="rhombus;whiteSpace=wrap;html=1;rounded=1;" parent="1" vertex="1">
          <mxGeometry x="255" y="1144.38" width="160" height="80" as="geometry" />
        </mxCell>
        <mxCell id="mEqfDXpkV24xWXZ3q9tl-76" value="return&amp;nbsp; &amp;nbsp; bean" style="whiteSpace=wrap;html=1;rounded=1;" parent="1" vertex="1">
          <mxGeometry x="275" y="1770" width="120" height="60" as="geometry" />
        </mxCell>
        <mxCell id="mEqfDXpkV24xWXZ3q9tl-87" value="创建一个动态代理工厂" style="edgeStyle=orthogonalEdgeStyle;rounded=0;orthogonalLoop=1;jettySize=auto;html=1;" parent="1" source="mEqfDXpkV24xWXZ3q9tl-82" target="mEqfDXpkV24xWXZ3q9tl-86" edge="1">
          <mxGeometry relative="1" as="geometry" />
        </mxCell>
        <mxCell id="mEqfDXpkV24xWXZ3q9tl-82" value="&lt;pre style=&quot;font-family: &amp;#34;jetbrains mono&amp;#34; , monospace ; font-size: 11.3pt&quot;&gt;&lt;span style=&quot;background-color: rgb(255 , 255 , 255)&quot;&gt;createProxy&lt;/span&gt;&lt;/pre&gt;" style="whiteSpace=wrap;html=1;rounded=1;" parent="1" vertex="1">
          <mxGeometry x="-120" y="1166.5700000000002" width="120" height="35.62" as="geometry" />
        </mxCell>
        <mxCell id="mEqfDXpkV24xWXZ3q9tl-85" value="开始创建动态代理类" style="text;html=1;strokeColor=none;fillColor=none;align=center;verticalAlign=middle;whiteSpace=wrap;rounded=0;shadow=0;" parent="1" vertex="1">
          <mxGeometry x="-140" y="1140" width="170" height="20" as="geometry" />
        </mxCell>
        <mxCell id="mEqfDXpkV24xWXZ3q9tl-102" value="" style="edgeStyle=orthogonalEdgeStyle;rounded=0;orthogonalLoop=1;jettySize=auto;html=1;" parent="1" source="mEqfDXpkV24xWXZ3q9tl-86" target="mEqfDXpkV24xWXZ3q9tl-101" edge="1">
          <mxGeometry relative="1" as="geometry" />
        </mxCell>
        <mxCell id="xvFdu4RLf-Sp37y8z9dZ-1" value="&lt;span style=&quot;color: rgb(0 , 0 , 0) ; font-family: &amp;#34;helvetica&amp;#34; ; font-size: 11px ; font-style: normal ; font-weight: 400 ; letter-spacing: normal ; text-align: center ; text-indent: 0px ; text-transform: none ; word-spacing: 0px ; background-color: rgb(255 , 255 , 255) ; display: inline ; float: none&quot;&gt;调用代理工厂的动态代理方法&lt;/span&gt;" style="edgeStyle=none;rounded=0;orthogonalLoop=1;jettySize=auto;html=1;" parent="1" source="mEqfDXpkV24xWXZ3q9tl-86" target="mEqfDXpkV24xWXZ3q9tl-92" edge="1">
          <mxGeometry relative="1" as="geometry" />
        </mxCell>
        <mxCell id="mEqfDXpkV24xWXZ3q9tl-86" value="&lt;pre style=&quot;font-family: &amp;#34;jetbrains mono&amp;#34; , monospace ; font-size: 11.3pt&quot;&gt;&lt;pre style=&quot;font-family: &amp;#34;jetbrains mono&amp;#34; , monospace ; font-size: 11.3pt&quot;&gt;&lt;span style=&quot;background-color: rgb(255 , 255 , 255)&quot;&gt;ProxyFactory proxyFactory = new ProxyFactory();&lt;/span&gt;&lt;/pre&gt;&lt;/pre&gt;" style="whiteSpace=wrap;html=1;rounded=1;" parent="1" vertex="1">
          <mxGeometry x="-265" y="1280" width="410" height="30" as="geometry" />
        </mxCell>
        <mxCell id="mEqfDXpkV24xWXZ3q9tl-105" value="" style="edgeStyle=orthogonalEdgeStyle;rounded=0;orthogonalLoop=1;jettySize=auto;html=1;" parent="1" source="mEqfDXpkV24xWXZ3q9tl-90" target="mEqfDXpkV24xWXZ3q9tl-104" edge="1">
          <mxGeometry relative="1" as="geometry" />
        </mxCell>
        <mxCell id="mEqfDXpkV24xWXZ3q9tl-90" value="&lt;pre style=&quot;font-family: &amp;#34;jetbrains mono&amp;#34; , monospace ; font-size: 11.3pt&quot;&gt;&lt;span style=&quot;background-color: rgb(255 , 255 , 255)&quot;&gt;buildAdvisors&lt;/span&gt;&lt;/pre&gt;" style="whiteSpace=wrap;html=1;rounded=1;" parent="1" vertex="1">
          <mxGeometry x="-575" y="1488.12" width="170" height="23.43" as="geometry" />
        </mxCell>
        <mxCell id="mEqfDXpkV24xWXZ3q9tl-95" value="" style="edgeStyle=orthogonalEdgeStyle;rounded=0;orthogonalLoop=1;jettySize=auto;html=1;" parent="1" source="mEqfDXpkV24xWXZ3q9tl-92" target="mEqfDXpkV24xWXZ3q9tl-94" edge="1">
          <mxGeometry relative="1" as="geometry" />
        </mxCell>
        <mxCell id="mEqfDXpkV24xWXZ3q9tl-96" value="调用Aop的动态代理进行代理" style="edgeLabel;html=1;align=center;verticalAlign=middle;resizable=0;points=[];" parent="mEqfDXpkV24xWXZ3q9tl-95" vertex="1" connectable="0">
          <mxGeometry x="-0.25" y="-1" relative="1" as="geometry">
            <mxPoint as="offset" />
          </mxGeometry>
        </mxCell>
        <mxCell id="mEqfDXpkV24xWXZ3q9tl-92" value="&lt;pre style=&quot;font-family: &amp;#34;jetbrains mono&amp;#34; , monospace ; font-size: 11.3pt&quot;&gt;&lt;span style=&quot;background-color: rgb(255 , 255 , 255)&quot;&gt;proxyFactory.getProxy&lt;/span&gt;&lt;/pre&gt;" style="whiteSpace=wrap;html=1;rounded=1;" parent="1" vertex="1">
          <mxGeometry x="-200" y="1470" width="280" height="20" as="geometry" />
        </mxCell>
        <mxCell id="mEqfDXpkV24xWXZ3q9tl-97" value="代理方式分为jdk和Cglib进行动态代理" style="edgeStyle=orthogonalEdgeStyle;rounded=0;orthogonalLoop=1;jettySize=auto;html=1;entryX=0;entryY=0.5;entryDx=0;entryDy=0;exitX=0.5;exitY=1;exitDx=0;exitDy=0;" parent="1" source="mEqfDXpkV24xWXZ3q9tl-94" target="mEqfDXpkV24xWXZ3q9tl-76" edge="1">
          <mxGeometry relative="1" as="geometry" />
        </mxCell>
        <mxCell id="mEqfDXpkV24xWXZ3q9tl-94" value="&lt;pre style=&quot;font-family: &amp;#34;jetbrains mono&amp;#34; , monospace ; font-size: 11.3pt&quot;&gt;&lt;span style=&quot;background-color: rgb(255 , 255 , 255)&quot;&gt;createAopProxy().getProxy(classLoader)&lt;/span&gt;&lt;/pre&gt;" style="whiteSpace=wrap;html=1;rounded=1;" parent="1" vertex="1">
          <mxGeometry x="-215" y="1570" width="310" height="30" as="geometry" />
        </mxCell>
        <mxCell id="mEqfDXpkV24xWXZ3q9tl-99" value="&lt;h1&gt;代理方式&lt;/h1&gt;&lt;div&gt;1.JDK动态代理，基于接口实现动态代理&lt;/div&gt;&lt;div&gt;2.Cglib动态代理，&lt;/div&gt;&lt;div&gt;3.动态代理都实现了InvocationHandler接口&lt;/div&gt;" style="text;html=1;strokeColor=none;fillColor=none;spacing=5;spacingTop=-20;whiteSpace=wrap;overflow=hidden;rounded=0;shadow=0;" parent="1" vertex="1">
          <mxGeometry x="-132.5" y="1820" width="240" height="100" as="geometry" />
        </mxCell>
        <mxCell id="mEqfDXpkV24xWXZ3q9tl-101" value="&lt;h1&gt;设置动态代理工厂参数&lt;/h1&gt;&lt;div&gt;1.设置代理目标对象&lt;/div&gt;&lt;div&gt;2.设置advisors&lt;/div&gt;&lt;div&gt;3设置定制动态代理工厂&lt;font style=&quot;font-size: 12px&quot;&gt;&lt;span style=&quot;font-family: &amp;#34;jetbrains mono&amp;#34; , monospace ; background-color: rgb(255 , 255 , 255)&quot;&gt;customizeProxyFactory(&lt;/span&gt;&lt;span style=&quot;background-color: rgb(255 , 255 , 255) ; font-family: &amp;#34;jetbrains mono&amp;#34; , monospace ; text-align: center&quot;&gt;proxyFactory&lt;/span&gt;&lt;span style=&quot;background-color: rgb(255 , 255 , 255) ; font-family: &amp;#34;jetbrains mono&amp;#34; , monospace&quot;&gt;)此方法预留方法&lt;/span&gt;&lt;/font&gt;&lt;/div&gt;&lt;div&gt;&lt;font style=&quot;font-size: 12px&quot;&gt;&lt;span style=&quot;background-color: rgb(255 , 255 , 255) ; font-family: &amp;#34;jetbrains mono&amp;#34; , monospace&quot;&gt;4.设置其余需要的参数&lt;/span&gt;&lt;/font&gt;&lt;/div&gt;" style="text;html=1;strokeColor=#FF9933;fillColor=none;spacing=5;spacingTop=-20;whiteSpace=wrap;overflow=hidden;rounded=0;shadow=0;" parent="1" vertex="1">
          <mxGeometry x="-610" y="1225" width="280" height="140" as="geometry" />
        </mxCell>
        <mxCell id="mEqfDXpkV24xWXZ3q9tl-103" value="设置advisors方法----------注册拦截器并返回拦截器对应的通知" style="text;html=1;strokeColor=none;fillColor=none;align=center;verticalAlign=middle;whiteSpace=wrap;rounded=0;shadow=0;" parent="1" vertex="1">
          <mxGeometry x="-655" y="1458.12" width="360" height="20" as="geometry" />
        </mxCell>
        <mxCell id="mEqfDXpkV24xWXZ3q9tl-104" value="&lt;pre style=&quot;font-family: &amp;#34;jetbrains mono&amp;#34; , monospace ; font-size: 11.3pt&quot;&gt;&lt;span style=&quot;background-color: rgb(255 , 255 , 255)&quot;&gt;advisors[i] = &lt;/span&gt;&lt;/pre&gt;&lt;pre style=&quot;font-family: &amp;#34;jetbrains mono&amp;#34; , monospace ; font-size: 11.3pt&quot;&gt;&lt;span style=&quot;background-color: rgb(255 , 255 , 255)&quot;&gt;this.advisorAdapterRegistry.wrap(allInterceptors.get(i));&lt;/span&gt;&lt;/pre&gt;" style="whiteSpace=wrap;html=1;rounded=1;" parent="1" vertex="1">
          <mxGeometry x="-737.5" y="1570" width="495" height="60" as="geometry" />
        </mxCell>
        <mxCell id="-3TuCTokdQ1aTvoNtiGP-5" value="" style="edgeStyle=none;rounded=0;orthogonalLoop=1;jettySize=auto;html=1;strokeColor=#000000;" edge="1" parent="1" source="-3TuCTokdQ1aTvoNtiGP-1" target="-3TuCTokdQ1aTvoNtiGP-4">
          <mxGeometry relative="1" as="geometry" />
        </mxCell>
        <mxCell id="-3TuCTokdQ1aTvoNtiGP-1" value="代码织入开始，Jdk动态代理方式" style="rounded=1;whiteSpace=wrap;html=1;" vertex="1" parent="1">
          <mxGeometry x="1893" y="30" width="350" height="30" as="geometry" />
        </mxCell>
        <mxCell id="-3TuCTokdQ1aTvoNtiGP-3" value="" style="endArrow=none;dashed=1;html=1;strokeColor=#0000FF;" edge="1" parent="1">
          <mxGeometry width="50" height="50" relative="1" as="geometry">
            <mxPoint x="1160" y="1850" as="sourcePoint" />
            <mxPoint x="1160" y="20" as="targetPoint" />
          </mxGeometry>
        </mxCell>
        <mxCell id="-3TuCTokdQ1aTvoNtiGP-7" value="" style="edgeStyle=none;rounded=0;orthogonalLoop=1;jettySize=auto;html=1;strokeColor=#000000;" edge="1" parent="1" source="-3TuCTokdQ1aTvoNtiGP-4" target="-3TuCTokdQ1aTvoNtiGP-6">
          <mxGeometry relative="1" as="geometry" />
        </mxCell>
        <mxCell id="-3TuCTokdQ1aTvoNtiGP-8" value="获取方法的拦截器链，此时使用责任链模式进行处理" style="edgeLabel;html=1;align=center;verticalAlign=middle;resizable=0;points=[];" vertex="1" connectable="0" parent="-3TuCTokdQ1aTvoNtiGP-7">
          <mxGeometry x="-0.2308" y="3" relative="1" as="geometry">
            <mxPoint as="offset" />
          </mxGeometry>
        </mxCell>
        <mxCell id="-3TuCTokdQ1aTvoNtiGP-4" value="invoke" style="whiteSpace=wrap;html=1;rounded=1;" vertex="1" parent="1">
          <mxGeometry x="2008" y="120" width="120" height="30" as="geometry" />
        </mxCell>
        <mxCell id="-3TuCTokdQ1aTvoNtiGP-10" value="" style="edgeStyle=none;rounded=0;orthogonalLoop=1;jettySize=auto;html=1;strokeColor=#000000;" edge="1" parent="1" source="-3TuCTokdQ1aTvoNtiGP-6" target="-3TuCTokdQ1aTvoNtiGP-9">
          <mxGeometry relative="1" as="geometry" />
        </mxCell>
        <mxCell id="-3TuCTokdQ1aTvoNtiGP-6" value="&lt;pre style=&quot;font-family: &amp;#34;jetbrains mono&amp;#34; , monospace ; font-size: 9.8pt&quot;&gt;&lt;span style=&quot;background-color: rgb(255 , 255 , 255)&quot;&gt;getInterceptorsAndDynamicInterceptionAdvice&lt;/span&gt;&lt;/pre&gt;" style="whiteSpace=wrap;html=1;rounded=1;" vertex="1" parent="1">
          <mxGeometry x="1843" y="215" width="450" height="35" as="geometry" />
        </mxCell>
        <mxCell id="-3TuCTokdQ1aTvoNtiGP-12" value="&lt;br&gt;跳过创建方法的拦截器（MethodInvocation），不进行创建，只对目标对象进行代理" style="edgeStyle=none;rounded=0;orthogonalLoop=1;jettySize=auto;html=1;strokeColor=#000000;" edge="1" parent="1" source="-3TuCTokdQ1aTvoNtiGP-9" target="-3TuCTokdQ1aTvoNtiGP-11">
          <mxGeometry relative="1" as="geometry" />
        </mxCell>
        <mxCell id="-3TuCTokdQ1aTvoNtiGP-13" value="是" style="edgeLabel;html=1;align=center;verticalAlign=middle;resizable=0;points=[];" vertex="1" connectable="0" parent="-3TuCTokdQ1aTvoNtiGP-12">
          <mxGeometry x="-0.1444" y="-1" relative="1" as="geometry">
            <mxPoint as="offset" />
          </mxGeometry>
        </mxCell>
        <mxCell id="-3TuCTokdQ1aTvoNtiGP-23" value="" style="edgeStyle=none;rounded=0;orthogonalLoop=1;jettySize=auto;html=1;strokeColor=#000000;" edge="1" parent="1" source="-3TuCTokdQ1aTvoNtiGP-9" target="-3TuCTokdQ1aTvoNtiGP-22">
          <mxGeometry relative="1" as="geometry" />
        </mxCell>
        <mxCell id="-3TuCTokdQ1aTvoNtiGP-24" value="否" style="edgeLabel;html=1;align=center;verticalAlign=middle;resizable=0;points=[];" vertex="1" connectable="0" parent="-3TuCTokdQ1aTvoNtiGP-23">
          <mxGeometry x="0.1" relative="1" as="geometry">
            <mxPoint as="offset" />
          </mxGeometry>
        </mxCell>
        <mxCell id="-3TuCTokdQ1aTvoNtiGP-9" value="责任链&lt;br&gt;是否为空" style="rhombus;whiteSpace=wrap;html=1;rounded=1;" vertex="1" parent="1">
          <mxGeometry x="2028" y="307.5" width="80" height="80" as="geometry" />
        </mxCell>
        <mxCell id="-3TuCTokdQ1aTvoNtiGP-18" value="" style="edgeStyle=none;rounded=0;orthogonalLoop=1;jettySize=auto;html=1;strokeColor=#000000;" edge="1" parent="1" source="-3TuCTokdQ1aTvoNtiGP-11">
          <mxGeometry relative="1" as="geometry">
            <mxPoint x="2068" y="590" as="targetPoint" />
          </mxGeometry>
        </mxCell>
        <mxCell id="-3TuCTokdQ1aTvoNtiGP-19" value="使用反射调用联接点" style="edgeLabel;html=1;align=center;verticalAlign=middle;resizable=0;points=[];" vertex="1" connectable="0" parent="-3TuCTokdQ1aTvoNtiGP-18">
          <mxGeometry x="0.0571" relative="1" as="geometry">
            <mxPoint as="offset" />
          </mxGeometry>
        </mxCell>
        <mxCell id="-3TuCTokdQ1aTvoNtiGP-11" value="&lt;pre style=&quot;font-family: &amp;#34;jetbrains mono&amp;#34; , monospace ; font-size: 9.8pt&quot;&gt;&lt;span style=&quot;background-color: rgb(255 , 255 , 255)&quot;&gt;AopProxyUtils.&lt;span style=&quot;font-style: italic&quot;&gt;adaptArgumentsIfNecessary&lt;/span&gt;(method, args)&lt;/span&gt;&lt;/pre&gt;" style="whiteSpace=wrap;html=1;rounded=1;" vertex="1" parent="1">
          <mxGeometry x="1828" y="480" width="480" height="40" as="geometry" />
        </mxCell>
        <mxCell id="-3TuCTokdQ1aTvoNtiGP-14" value="根据需要调整参数" style="text;html=1;strokeColor=none;fillColor=none;align=center;verticalAlign=middle;whiteSpace=wrap;rounded=0;" vertex="1" parent="1">
          <mxGeometry x="1843" y="478.75" width="120" height="20" as="geometry" />
        </mxCell>
        <mxCell id="-3TuCTokdQ1aTvoNtiGP-21" value="" style="edgeStyle=none;rounded=0;orthogonalLoop=1;jettySize=auto;html=1;strokeColor=#000000;" edge="1" parent="1" target="-3TuCTokdQ1aTvoNtiGP-20">
          <mxGeometry relative="1" as="geometry">
            <mxPoint x="2068" y="640" as="sourcePoint" />
          </mxGeometry>
        </mxCell>
        <mxCell id="-3TuCTokdQ1aTvoNtiGP-17" value="&lt;pre style=&quot;font-family: &amp;#34;jetbrains mono&amp;#34; , monospace ; font-size: 9.8pt&quot;&gt;&lt;span style=&quot;background-color: rgb(255 , 255 , 255)&quot;&gt;AopUtils.&lt;span style=&quot;font-style: italic&quot;&gt;invokeJoinpointUsingReflection&lt;/span&gt;(target, method, argsToUse)&lt;/span&gt;&lt;/pre&gt;" style="whiteSpace=wrap;html=1;rounded=1;" vertex="1" parent="1">
          <mxGeometry x="1790" y="590" width="580" height="50" as="geometry" />
        </mxCell>
        <mxCell id="-3TuCTokdQ1aTvoNtiGP-20" value="return &amp;nbsp;&amp;nbsp;&lt;span style=&quot;font-family: &amp;#34;jetbrains mono&amp;#34; , monospace ; font-size: 9.8pt ; background-color: rgb(255 , 255 , 255)&quot;&gt;retVal&lt;/span&gt;" style="whiteSpace=wrap;html=1;rounded=1;" vertex="1" parent="1">
          <mxGeometry x="2008" y="910" width="120" height="60" as="geometry" />
        </mxCell>
        <mxCell id="-3TuCTokdQ1aTvoNtiGP-27" value="通过拦截器链进入连接点" style="edgeStyle=none;rounded=0;orthogonalLoop=1;jettySize=auto;html=1;strokeColor=#000000;" edge="1" parent="1" source="-3TuCTokdQ1aTvoNtiGP-22" target="-3TuCTokdQ1aTvoNtiGP-26">
          <mxGeometry relative="1" as="geometry" />
        </mxCell>
        <mxCell id="-3TuCTokdQ1aTvoNtiGP-22" value="&lt;pre style=&quot;font-family: &amp;#34;jetbrains mono&amp;#34; , monospace ; font-size: 9.8pt&quot;&gt;&lt;span style=&quot;background-color: rgb(255 , 255 , 255)&quot;&gt;new ReflectiveMethodInvocation&lt;/span&gt;&lt;/pre&gt;" style="whiteSpace=wrap;html=1;rounded=1;" vertex="1" parent="1">
          <mxGeometry x="1300" y="326.25" width="310" height="42.5" as="geometry" />
        </mxCell>
        <mxCell id="-3TuCTokdQ1aTvoNtiGP-25" value="创建方法拦截器" style="text;html=1;strokeColor=none;fillColor=none;align=center;verticalAlign=middle;whiteSpace=wrap;rounded=0;" vertex="1" parent="1">
          <mxGeometry x="1280" y="306.25" width="140" height="20" as="geometry" />
        </mxCell>
        <mxCell id="-3TuCTokdQ1aTvoNtiGP-41" value="" style="edgeStyle=orthogonalEdgeStyle;rounded=0;orthogonalLoop=1;jettySize=auto;html=1;strokeColor=#000000;" edge="1" parent="1" source="-3TuCTokdQ1aTvoNtiGP-26" target="-3TuCTokdQ1aTvoNtiGP-40">
          <mxGeometry relative="1" as="geometry" />
        </mxCell>
        <mxCell id="-3TuCTokdQ1aTvoNtiGP-26" value="&lt;pre style=&quot;font-family: &amp;#34;jetbrains mono&amp;#34; , monospace ; font-size: 9.8pt&quot;&gt;&lt;span style=&quot;background-color: rgb(255 , 255 , 255)&quot;&gt;invocation.proceed()&lt;/span&gt;&lt;/pre&gt;" style="whiteSpace=wrap;html=1;rounded=1;" vertex="1" parent="1">
          <mxGeometry x="1335" y="440" width="240" height="30" as="geometry" />
        </mxCell>
        <mxCell id="-3TuCTokdQ1aTvoNtiGP-30" value="此方法每次调用都会进行对，当前拦截器指数进行&lt;span style=&quot;font-family: &amp;#34;jetbrains mono&amp;#34; , monospace ; font-size: 9.8pt ; background-color: rgb(255 , 255 , 255)&quot;&gt;&lt;font color=&quot;#ff0000&quot;&gt;currentInterceptorIndex参数++操作再去执行，当拦截器指数和此方法的拦截器（拦截器链）对应的长度相同时执行结束&lt;/font&gt;&lt;/span&gt;" style="text;html=1;strokeColor=none;fillColor=none;align=center;verticalAlign=middle;whiteSpace=wrap;rounded=0;" vertex="1" parent="1">
          <mxGeometry x="1335.25" y="460" width="240" height="145" as="geometry" />
        </mxCell>
        <mxCell id="-3TuCTokdQ1aTvoNtiGP-37" style="edgeStyle=orthogonalEdgeStyle;rounded=0;orthogonalLoop=1;jettySize=auto;html=1;exitX=0.5;exitY=1;exitDx=0;exitDy=0;entryX=0;entryY=0.65;entryDx=0;entryDy=0;entryPerimeter=0;strokeColor=#000000;" edge="1" parent="1" source="-3TuCTokdQ1aTvoNtiGP-35" target="-3TuCTokdQ1aTvoNtiGP-20">
          <mxGeometry relative="1" as="geometry" />
        </mxCell>
        <mxCell id="-3TuCTokdQ1aTvoNtiGP-38" value="是" style="edgeLabel;html=1;align=center;verticalAlign=middle;resizable=0;points=[];" vertex="1" connectable="0" parent="-3TuCTokdQ1aTvoNtiGP-37">
          <mxGeometry x="-0.4715" y="-1" relative="1" as="geometry">
            <mxPoint as="offset" />
          </mxGeometry>
        </mxCell>
        <mxCell id="-3TuCTokdQ1aTvoNtiGP-39" value="否" style="edgeStyle=orthogonalEdgeStyle;rounded=0;orthogonalLoop=1;jettySize=auto;html=1;entryX=1;entryY=0.25;entryDx=0;entryDy=0;strokeColor=#000000;exitX=1;exitY=0.5;exitDx=0;exitDy=0;" edge="1" parent="1" source="-3TuCTokdQ1aTvoNtiGP-35" target="-3TuCTokdQ1aTvoNtiGP-26">
          <mxGeometry relative="1" as="geometry" />
        </mxCell>
        <mxCell id="-3TuCTokdQ1aTvoNtiGP-35" value="&lt;pre style=&quot;font-size: 9.8pt ; font-family: &amp;#34;jetbrains mono&amp;#34; , monospace&quot;&gt;&lt;pre style=&quot;font-family: &amp;#34;jetbrains mono&amp;#34; , monospace ; font-size: 9.8pt&quot;&gt;&lt;span style=&quot;background-color: rgb(255 , 255 , 255)&quot;&gt;currentInterceptorIndex&amp;nbsp;&lt;/span&gt;&lt;/pre&gt;&lt;pre style=&quot;font-family: &amp;#34;jetbrains mono&amp;#34; , monospace ; font-size: 9.8pt&quot;&gt;&lt;span style=&quot;background-color: rgb(255 , 255 , 255)&quot;&gt;==&amp;nbsp;&lt;/span&gt;&lt;/pre&gt;&lt;pre style=&quot;font-family: &amp;#34;jetbrains mono&amp;#34; , monospace ; font-size: 9.8pt&quot;&gt;&lt;span style=&quot;background-color: rgb(255 , 255 , 255)&quot;&gt;interceptorsAndDyn&lt;/span&gt;&lt;/pre&gt;&lt;pre style=&quot;font-family: &amp;#34;jetbrains mono&amp;#34; , monospace ; font-size: 9.8pt&quot;&gt;&lt;span style=&quot;background-color: rgb(255 , 255 , 255)&quot;&gt;amicMethodMatchers.size() - 1&lt;/span&gt;&lt;/pre&gt;&lt;/pre&gt;" style="rhombus;whiteSpace=wrap;html=1;rounded=1;" vertex="1" parent="1">
          <mxGeometry x="1291.5" y="760" width="327.5" height="155" as="geometry" />
        </mxCell>
        <mxCell id="-3TuCTokdQ1aTvoNtiGP-42" value="" style="edgeStyle=orthogonalEdgeStyle;rounded=0;orthogonalLoop=1;jettySize=auto;html=1;strokeColor=#000000;" edge="1" parent="1" source="-3TuCTokdQ1aTvoNtiGP-40" target="-3TuCTokdQ1aTvoNtiGP-35">
          <mxGeometry relative="1" as="geometry" />
        </mxCell>
        <mxCell id="-3TuCTokdQ1aTvoNtiGP-40" value="调用动态代理，并且传入this，进行下次调用" style="whiteSpace=wrap;html=1;rounded=1;" vertex="1" parent="1">
          <mxGeometry x="1395" y="635" width="120" height="60" as="geometry" />
        </mxCell>
        <mxCell id="-3TuCTokdQ1aTvoNtiGP-44" value="&lt;h1&gt;调用(&lt;font style=&quot;font-size: 24px&quot;&gt;&lt;span style=&quot;font-family: &amp;#34;jetbrains mono&amp;#34; , monospace ; font-weight: normal ; background-color: rgb(255 , 255 , 255)&quot;&gt;invokeAdviceMethod&lt;/span&gt;&lt;span style=&quot;font-weight: normal&quot;&gt;)方式：&lt;/span&gt;&lt;/font&gt;&lt;/h1&gt;&lt;div&gt;1.after 调用proceed()方法在之后调用finally调用 invockeAdviceMethod&lt;/div&gt;&lt;div&gt;2.&lt;span style=&quot;font-family: &amp;#34;jetbrains mono&amp;#34; , monospace ; font-size: 9.8pt ; background-color: rgb(255 , 255 , 255)&quot;&gt;afterReturning：先&lt;/span&gt;调用 proceed()方法然后调用 invokeAdviceMethod&lt;br&gt;&lt;/div&gt;&lt;div&gt;3.afterThrowing 调用proceed()方法，先调用proceed，然后在finally中执行&amp;nbsp;&lt;font face=&quot;JetBrains Mono, monospace&quot; size=&quot;2&quot;&gt;&lt;span style=&quot;background-color: rgb(255 , 255 , 255)&quot;&gt;invokeAdviceMethod&lt;/span&gt;&lt;/font&gt;&lt;/div&gt;&lt;div&gt;&lt;font face=&quot;JetBrains Mono, monospace&quot; size=&quot;2&quot;&gt;&lt;span style=&quot;background-color: rgb(255 , 255 , 255)&quot;&gt;4.before 调用proceed()方法在之后，先调用 invokeAdviceMethod&lt;/span&gt;&lt;/font&gt;&lt;/div&gt;" style="text;html=1;strokeColor=none;fillColor=none;spacing=5;spacingTop=-20;whiteSpace=wrap;overflow=hidden;rounded=0;" vertex="1" parent="1">
          <mxGeometry x="1303" y="1015.63" width="590" height="120" as="geometry" />
        </mxCell>
      </root>
    </mxGraphModel>
  </diagram>
</mxfile>
